STARTFONT 2.1
FONT -Adobe-ITC Lubalin Graph-Book-R-Normal--14-140-75-75-P-81-ISO8859-1
SIZE 14 75 75
FONTBOUNDINGBOX 17 18 -1 -3

STARTPROPERTIES 30
FOUNDRY "Adobe"
FAMILY_NAME "ITC Lubalin Graph"
WEIGHT_NAME "Book"
SLANT "R"
SETWIDTH_NAME "Normal"
ADD_STYLE_NAME ""
PIXEL_SIZE 14
POINT_SIZE 140
RESOLUTION_X 75
RESOLUTION_Y 75
SPACING "P"
AVERAGE_WIDTH 81
CHARSET_REGISTRY "ISO8859"
CHARSET_ENCODING "1"
CAP_HEIGHT 11
X_HEIGHT 8
FACE_NAME "ITC Lubalin Graph Book"
COPYRIGHT "Copyright (c) 1984, 1987 Adobe Systems Incorporated. All Rights Reserved. Copyright (c) 1988, 1991 Digital Equipment Corporation. All Rights Reserved."
NOTICE "ITC Lubalin Graph is a registered trademark of International Typeface Corporation."
_DEC_DEVICE_FONTNAMES "PS=LubalinGraph-Book"
_DEC_PRODUCTINFO "DECwindows Fonts V2.2, 07-Nov-1991"
RELATIVE_SETWIDTH 50
RELATIVE_WEIGHT 40
CHARSET_COLLECTIONS "ASCII ISO8859-1 ADOBE-STANDARD"
FULL_NAME "ITC Lublin Graph Book"
WEIGHT 10
QUAD_WIDTH 9
DEFAULT_CHAR 32
FONT_DESCENT 3
FONT_ASCENT 13
ENDPROPERTIES

CHARS 191

STARTCHAR space
ENCODING 32
SWIDTH 300 0
DWIDTH 3 0
BBX 1 1 0 0
BITMAP
00
ENDCHAR

STARTCHAR exclam
ENCODING 33
SWIDTH 140 0
DWIDTH 4 0
BBX 1 11 1 0
BITMAP
80
80
80
80
80
80
80
80
00
80
80
ENDCHAR

STARTCHAR quotedbl
ENCODING 34
SWIDTH 280 0
DWIDTH 5 0
BBX 3 3 1 8
BITMAP
A0
A0
A0
ENDCHAR

STARTCHAR numbersign
ENCODING 35
SWIDTH 580 0
DWIDTH 8 0
BBX 9 10 -1 1
BITMAP
0A00
0A00
0A00
7F80
1400
1400
FF00
2800
2800
2800
ENDCHAR

STARTCHAR dollar
ENCODING 36
SWIDTH 580 0
DWIDTH 8 0
BBX 7 14 0 -2
BITMAP
10
3C
54
94
90
50
38
14
12
92
D4
B8
10
10
ENDCHAR

STARTCHAR percent
ENCODING 37
SWIDTH 800 0
DWIDTH 11 0
BBX 10 11 0 0
BITMAP
7100
8900
8A00
8A00
7400
0400
0B80
1440
1440
2440
2380
ENDCHAR

STARTCHAR ampersand
ENCODING 38
SWIDTH 720 0
DWIDTH 11 0
BBX 10 11 0 0
BITMAP
3800
4400
4400
2800
3000
48C0
8500
8200
8300
4480
3840
ENDCHAR

STARTCHAR quoteright
ENCODING 39
SWIDTH 200 0
DWIDTH 3 0
BBX 3 3 0 8
BITMAP
20
40
80
ENDCHAR

STARTCHAR parenleft
ENCODING 40
SWIDTH 340 0
DWIDTH 5 0
BBX 4 13 0 -2
BITMAP
10
20
40
40
80
80
80
80
80
40
40
20
10
ENDCHAR

STARTCHAR parenright
ENCODING 41
SWIDTH 340 0
DWIDTH 5 0
BBX 4 13 0 -2
BITMAP
80
40
20
20
10
10
10
10
10
20
20
40
80
ENDCHAR

STARTCHAR asterisk
ENCODING 42
SWIDTH 340 0
DWIDTH 6 0
BBX 5 5 0 6
BITMAP
50
20
F8
20
50
ENDCHAR

STARTCHAR plus
ENCODING 43
SWIDTH 660 0
DWIDTH 9 0
BBX 7 7 1 2
BITMAP
10
10
10
FE
10
10
10
ENDCHAR

STARTCHAR comma
ENCODING 44
SWIDTH 300 0
DWIDTH 4 0
BBX 2 3 0 -1
BITMAP
40
40
80
ENDCHAR

STARTCHAR minus
ENCODING 45
SWIDTH 660 0
DWIDTH 9 0
BBX 7 1 1 5
BITMAP
FE
ENDCHAR

STARTCHAR period
ENCODING 46
SWIDTH 300 0
DWIDTH 4 0
BBX 1 2 1 0
BITMAP
80
80
ENDCHAR

STARTCHAR slash
ENCODING 47
SWIDTH 580 0
DWIDTH 7 0
BBX 6 13 0 -2
BITMAP
04
04
08
08
10
10
20
20
20
40
40
80
80
ENDCHAR

STARTCHAR zero
ENCODING 48
SWIDTH 580 0
DWIDTH 8 0
BBX 7 11 0 0
BITMAP
38
44
82
82
82
82
82
82
82
44
38
ENDCHAR

STARTCHAR one
ENCODING 49
SWIDTH 580 0
DWIDTH 8 0
BBX 5 11 1 0
BITMAP
E0
20
20
20
20
20
20
20
20
20
F8
ENDCHAR

STARTCHAR two
ENCODING 50
SWIDTH 580 0
DWIDTH 8 0
BBX 7 11 0 0
BITMAP
38
44
82
82
04
08
10
20
42
82
FE
ENDCHAR

STARTCHAR three
ENCODING 51
SWIDTH 580 0
DWIDTH 8 0
BBX 7 11 0 0
BITMAP
38
44
04
04
18
04
02
82
82
44
38
ENDCHAR

STARTCHAR four
ENCODING 52
SWIDTH 580 0
DWIDTH 8 0
BBX 8 11 0 0
BITMAP
0C
14
14
24
24
44
84
FF
04
04
1E
ENDCHAR

STARTCHAR five
ENCODING 53
SWIDTH 580 0
DWIDTH 8 0
BBX 7 11 0 0
BITMAP
7C
80
80
B0
CC
02
02
02
82
C4
38
ENDCHAR

STARTCHAR six
ENCODING 54
SWIDTH 580 0
DWIDTH 8 0
BBX 7 11 0 0
BITMAP
10
20
40
40
B8
C4
82
82
82
44
38
ENDCHAR

STARTCHAR seven
ENCODING 55
SWIDTH 580 0
DWIDTH 8 0
BBX 6 11 1 0
BITMAP
FC
84
08
08
10
10
20
20
40
40
40
ENDCHAR

STARTCHAR eight
ENCODING 56
SWIDTH 580 0
DWIDTH 8 0
BBX 7 11 0 0
BITMAP
38
44
44
44
38
44
82
82
82
44
38
ENDCHAR

STARTCHAR nine
ENCODING 57
SWIDTH 580 0
DWIDTH 8 0
BBX 7 11 0 0
BITMAP
38
44
82
82
82
42
3C
04
08
10
20
ENDCHAR

STARTCHAR colon
ENCODING 58
SWIDTH 300 0
DWIDTH 4 0
BBX 1 7 1 0
BITMAP
80
80
00
00
00
80
80
ENDCHAR

STARTCHAR semicolon
ENCODING 59
SWIDTH 300 0
DWIDTH 4 0
BBX 2 8 0 -1
BITMAP
40
40
00
00
00
40
40
80
ENDCHAR

STARTCHAR less
ENCODING 60
SWIDTH 660 0
DWIDTH 10 0
BBX 8 7 1 1
BITMAP
03
0C
30
C0
30
0C
03
ENDCHAR

STARTCHAR equal
ENCODING 61
SWIDTH 660 0
DWIDTH 9 0
BBX 7 3 1 4
BITMAP
FE
00
FE
ENDCHAR

STARTCHAR greater
ENCODING 62
SWIDTH 660 0
DWIDTH 10 0
BBX 8 7 1 1
BITMAP
C0
30
0C
03
0C
30
C0
ENDCHAR

STARTCHAR question
ENCODING 63
SWIDTH 520 0
DWIDTH 7 0
BBX 6 11 0 0
BITMAP
78
84
84
04
08
10
20
20
00
20
20
ENDCHAR

STARTCHAR at
ENCODING 64
SWIDTH 900 0
DWIDTH 12 0
BBX 11 11 0 0
BITMAP
1F00
60C0
4040
8D20
9320
A220
A240
9D80
4000
60C0
1F00
ENDCHAR

STARTCHAR A
ENCODING 65
SWIDTH 820 0
DWIDTH 12 0
BBX 11 11 0 0
BITMAP
1C00
0400
0A00
0A00
1100
1100
3F80
2080
2080
4040
E0E0
ENDCHAR

STARTCHAR B
ENCODING 66
SWIDTH 580 0
DWIDTH 8 0
BBX 7 11 0 0
BITMAP
F8
44
42
42
44
78
44
42
42
44
F8
ENDCHAR

STARTCHAR C
ENCODING 67
SWIDTH 740 0
DWIDTH 11 0
BBX 10 11 0 0
BITMAP
1F40
60C0
4040
8000
8000
8000
8000
8000
4040
6080
1F00
ENDCHAR

STARTCHAR D
ENCODING 68
SWIDTH 720 0
DWIDTH 11 0
BBX 10 11 0 0
BITMAP
FE00
4180
4080
4040
4040
4040
4040
4040
4080
4180
FE00
ENDCHAR

STARTCHAR E
ENCODING 69
SWIDTH 560 0
DWIDTH 8 0
BBX 7 11 0 0
BITMAP
FE
42
42
40
40
7C
40
40
42
42
FE
ENDCHAR

STARTCHAR F
ENCODING 70
SWIDTH 560 0
DWIDTH 8 0
BBX 7 11 0 0
BITMAP
FE
42
42
40
40
7C
40
40
40
40
E0
ENDCHAR

STARTCHAR G
ENCODING 71
SWIDTH 780 0
DWIDTH 11 0
BBX 10 11 0 0
BITMAP
1F40
60C0
4040
8000
8000
8000
87C0
8040
40C0
6140
1E40
ENDCHAR

STARTCHAR H
ENCODING 72
SWIDTH 720 0
DWIDTH 10 0
BBX 9 11 0 0
BITMAP
E380
4100
4100
4100
4100
7F00
4100
4100
4100
4100
E380
ENDCHAR

STARTCHAR I
ENCODING 73
SWIDTH 300 0
DWIDTH 4 0
BBX 3 11 0 0
BITMAP
E0
40
40
40
40
40
40
40
40
40
E0
ENDCHAR

STARTCHAR J
ENCODING 74
SWIDTH 520 0
DWIDTH 7 0
BBX 6 11 0 0
BITMAP
1C
08
08
08
08
08
08
08
88
88
70
ENDCHAR

STARTCHAR K
ENCODING 75
SWIDTH 700 0
DWIDTH 10 0
BBX 9 11 0 0
BITMAP
E380
4200
4400
4800
5000
6000
5000
4800
4400
4200
E380
ENDCHAR

STARTCHAR L
ENCODING 76
SWIDTH 520 0
DWIDTH 7 0
BBX 6 11 0 0
BITMAP
E0
40
40
40
40
40
40
40
40
44
FC
ENDCHAR

STARTCHAR M
ENCODING 77
SWIDTH 980 0
DWIDTH 14 0
BBX 13 11 0 0
BITMAP
E038
6030
5050
5050
5050
4890
4890
4510
4510
4210
E238
ENDCHAR

STARTCHAR N
ENCODING 78
SWIDTH 800 0
DWIDTH 12 0
BBX 11 11 0 0
BITMAP
E0E0
6040
5040
4840
4840
4440
4240
4240
4140
40C0
E0C0
ENDCHAR

STARTCHAR O
ENCODING 79
SWIDTH 800 0
DWIDTH 12 0
BBX 11 11 0 0
BITMAP
1F00
60C0
4040
8020
8020
8020
8020
8020
4040
60C0
1F00
ENDCHAR

STARTCHAR P
ENCODING 80
SWIDTH 580 0
DWIDTH 9 0
BBX 8 11 0 0
BITMAP
FC
42
41
41
41
42
7C
40
40
40
E0
ENDCHAR

STARTCHAR Q
ENCODING 81
SWIDTH 860 0
DWIDTH 12 0
BBX 12 11 0 0
BITMAP
1F00
60C0
4040
8020
8020
8020
8020
9E20
6140
60D0
1F30
ENDCHAR

STARTCHAR R
ENCODING 82
SWIDTH 640 0
DWIDTH 9 0
BBX 9 11 0 0
BITMAP
FC00
4200
4100
4100
4100
4200
5C00
4800
4400
4200
E180
ENDCHAR

STARTCHAR S
ENCODING 83
SWIDTH 500 0
DWIDTH 8 0
BBX 7 11 0 0
BITMAP
3A
46
82
80
60
1C
06
02
82
C4
B8
ENDCHAR

STARTCHAR T
ENCODING 84
SWIDTH 540 0
DWIDTH 8 0
BBX 7 11 0 0
BITMAP
FE
92
10
10
10
10
10
10
10
10
38
ENDCHAR

STARTCHAR U
ENCODING 85
SWIDTH 700 0
DWIDTH 10 0
BBX 9 11 0 0
BITMAP
E380
4100
4100
4100
4100
4100
4100
4100
4100
2200
1C00
ENDCHAR

STARTCHAR V
ENCODING 86
SWIDTH 780 0
DWIDTH 11 0
BBX 11 11 0 0
BITMAP
E0E0
4040
2080
2080
2080
1100
1100
0A00
0A00
0400
0400
ENDCHAR

STARTCHAR W
ENCODING 87
SWIDTH 1040 0
DWIDTH 15 0
BBX 15 11 0 0
BITMAP
E10E
4104
4104
2288
2288
2288
1450
1450
1450
0820
0820
ENDCHAR

STARTCHAR X
ENCODING 88
SWIDTH 740 0
DWIDTH 10 0
BBX 10 11 0 0
BITMAP
7380
2100
1200
1200
0C00
0C00
1200
1200
2100
4080
E1C0
ENDCHAR

STARTCHAR Y
ENCODING 89
SWIDTH 680 0
DWIDTH 9 0
BBX 9 11 0 0
BITMAP
E380
4100
2200
2200
1400
1400
0800
0800
0800
0800
1C00
ENDCHAR

STARTCHAR Z
ENCODING 90
SWIDTH 520 0
DWIDTH 8 0
BBX 7 11 0 0
BITMAP
FE
82
04
08
08
10
20
20
40
82
FE
ENDCHAR

STARTCHAR bracketleft
ENCODING 91
SWIDTH 300 0
DWIDTH 4 0
BBX 3 13 0 -2
BITMAP
E0
80
80
80
80
80
80
80
80
80
80
80
E0
ENDCHAR

STARTCHAR backslash
ENCODING 92
SWIDTH 580 0
DWIDTH 8 0
BBX 6 11 1 0
BITMAP
80
40
40
20
20
10
10
08
08
04
04
ENDCHAR

STARTCHAR bracketright
ENCODING 93
SWIDTH 300 0
DWIDTH 4 0
BBX 3 13 0 -2
BITMAP
E0
20
20
20
20
20
20
20
20
20
20
20
E0
ENDCHAR

STARTCHAR asciicircum
ENCODING 94
SWIDTH 660 0
DWIDTH 8 0
BBX 7 8 0 3
BITMAP
10
10
28
28
44
44
82
82
ENDCHAR

STARTCHAR underscore
ENCODING 95
SWIDTH 500 0
DWIDTH 7 0
BBX 7 1 0 -2
BITMAP
FE
ENDCHAR

STARTCHAR quoteleft
ENCODING 96
SWIDTH 200 0
DWIDTH 3 0
BBX 3 3 0 8
BITMAP
80
40
20
ENDCHAR

STARTCHAR a
ENCODING 97
SWIDTH 660 0
DWIDTH 9 0
BBX 8 8 0 0
BITMAP
3B
46
82
82
82
82
46
3B
ENDCHAR

STARTCHAR b
ENCODING 98
SWIDTH 660 0
DWIDTH 9 0
BBX 8 11 0 0
BITMAP
C0
40
40
5C
62
41
41
41
41
62
DC
ENDCHAR

STARTCHAR c
ENCODING 99
SWIDTH 560 0
DWIDTH 8 0
BBX 7 8 0 0
BITMAP
3A
46
82
80
80
80
42
3C
ENDCHAR

STARTCHAR d
ENCODING 100
SWIDTH 660 0
DWIDTH 9 0
BBX 8 11 0 0
BITMAP
06
02
02
3A
46
82
82
82
82
46
3B
ENDCHAR

STARTCHAR e
ENCODING 101
SWIDTH 580 0
DWIDTH 9 0
BBX 8 8 0 0
BITMAP
3C
42
81
FF
80
81
42
3C
ENDCHAR

STARTCHAR f
ENCODING 102
SWIDTH 300 0
DWIDTH 4 0
BBX 4 11 0 0
BITMAP
30
40
40
E0
40
40
40
40
40
40
E0
ENDCHAR

STARTCHAR g
ENCODING 103
SWIDTH 660 0
DWIDTH 9 0
BBX 8 11 0 -3
BITMAP
3B
46
82
82
82
82
46
3A
02
84
78
ENDCHAR

STARTCHAR h
ENCODING 104
SWIDTH 640 0
DWIDTH 9 0
BBX 9 11 -1 0
BITMAP
C000
4000
4000
5E00
6300
4100
4100
4100
4100
4100
E380
ENDCHAR

STARTCHAR i
ENCODING 105
SWIDTH 260 0
DWIDTH 4 0
BBX 3 11 0 0
BITMAP
40
40
00
C0
40
40
40
40
40
40
E0
ENDCHAR

STARTCHAR j
ENCODING 106
SWIDTH 240 0
DWIDTH 3 0
BBX 3 14 -1 -3
BITMAP
20
20
00
60
20
20
20
20
20
20
20
20
20
C0
ENDCHAR

STARTCHAR k
ENCODING 107
SWIDTH 580 0
DWIDTH 8 0
BBX 8 11 0 0
BITMAP
C0
40
40
47
44
48
50
70
48
44
E7
ENDCHAR

STARTCHAR l
ENCODING 108
SWIDTH 280 0
DWIDTH 4 0
BBX 3 11 0 0
BITMAP
C0
40
40
40
40
40
40
40
40
40
E0
ENDCHAR

STARTCHAR m
ENCODING 109
SWIDTH 980 0
DWIDTH 14 0
BBX 13 8 0 0
BITMAP
DCE0
6730
4210
4210
4210
4210
4210
E738
ENDCHAR

STARTCHAR n
ENCODING 110
SWIDTH 660 0
DWIDTH 10 0
BBX 9 8 0 0
BITMAP
DE00
6300
4100
4100
4100
4100
4100
E380
ENDCHAR

STARTCHAR o
ENCODING 111
SWIDTH 580 0
DWIDTH 9 0
BBX 8 8 0 0
BITMAP
3C
42
81
81
81
81
42
3C
ENDCHAR

STARTCHAR p
ENCODING 112
SWIDTH 660 0
DWIDTH 9 0
BBX 8 11 0 -3
BITMAP
DC
62
41
41
41
41
62
5C
40
40
E0
ENDCHAR

STARTCHAR q
ENCODING 113
SWIDTH 660 0
DWIDTH 10 0
BBX 9 11 0 -3
BITMAP
3D80
4300
8100
8100
8100
8100
4300
3D00
0100
0100
0380
ENDCHAR

STARTCHAR r
ENCODING 114
SWIDTH 360 0
DWIDTH 5 0
BBX 4 8 0 0
BITMAP
D0
60
40
40
40
40
40
E0
ENDCHAR

STARTCHAR s
ENCODING 115
SWIDTH 420 0
DWIDTH 7 0
BBX 6 8 0 0
BITMAP
74
8C
84
60
18
84
C4
B8
ENDCHAR

STARTCHAR t
ENCODING 116
SWIDTH 320 0
DWIDTH 5 0
BBX 5 11 -1 0
BITMAP
20
20
20
F8
20
20
20
20
20
20
38
ENDCHAR

STARTCHAR u
ENCODING 117
SWIDTH 640 0
DWIDTH 9 0
BBX 8 8 0 0
BITMAP
C6
42
42
42
42
42
66
3B
ENDCHAR

STARTCHAR v
ENCODING 118
SWIDTH 640 0
DWIDTH 8 0
BBX 9 8 -1 0
BITMAP
E380
4100
2200
2200
1400
1400
0800
0800
ENDCHAR

STARTCHAR w
ENCODING 119
SWIDTH 900 0
DWIDTH 10 0
BBX 11 8 -1 0
BITMAP
E0E0
4440
4440
2A80
2A80
2A80
1100
1100
ENDCHAR

STARTCHAR x
ENCODING 120
SWIDTH 600 0
DWIDTH 9 0
BBX 8 8 0 0
BITMAP
E7
42
24
18
18
24
42
E7
ENDCHAR

STARTCHAR y
ENCODING 121
SWIDTH 640 0
DWIDTH 8 0
BBX 9 11 -1 -3
BITMAP
E380
4100
2200
2200
1400
1400
0800
0800
1000
1000
3800
ENDCHAR

STARTCHAR z
ENCODING 122
SWIDTH 420 0
DWIDTH 7 0
BBX 6 8 0 0
BITMAP
FC
84
08
10
20
40
84
FC
ENDCHAR

STARTCHAR braceleft
ENCODING 123
SWIDTH 300 0
DWIDTH 4 0
BBX 3 13 0 -2
BITMAP
20
40
40
40
40
80
40
40
40
40
40
40
20
ENDCHAR

STARTCHAR bar
ENCODING 124
SWIDTH 660 0
DWIDTH 9 0
BBX 1 11 4 0
BITMAP
80
80
80
80
80
80
80
80
80
80
80
ENDCHAR

STARTCHAR braceright
ENCODING 125
SWIDTH 300 0
DWIDTH 4 0
BBX 3 13 0 -2
BITMAP
80
40
40
40
40
20
40
40
40
40
40
40
80
ENDCHAR

STARTCHAR asciitilde
ENCODING 126
SWIDTH 660 0
DWIDTH 9 0
BBX 8 2 0 4
BITMAP
71
8E
ENDCHAR

STARTCHAR space
ENCODING 160
SWIDTH 300 0
DWIDTH 3 0
BBX 1 1 0 0
BITMAP
00
ENDCHAR

STARTCHAR exclamdown
ENCODING 161
SWIDTH 140 0
DWIDTH 4 0
BBX 1 11 1 -3
BITMAP
80
80
00
80
80
80
80
80
80
80
80
ENDCHAR

STARTCHAR cent
ENCODING 162
SWIDTH 580 0
DWIDTH 8 0
BBX 6 8 1 2
BITMAP
10
7C
94
90
90
94
78
10
ENDCHAR

STARTCHAR sterling
ENCODING 163
SWIDTH 640 0
DWIDTH 9 0
BBX 8 11 0 0
BITMAP
1D
23
41
40
20
FE
10
10
11
21
FE
ENDCHAR

STARTCHAR currency
ENCODING 164
SWIDTH 560 0
DWIDTH 8 0
BBX 6 8 1 2
BITMAP
84
78
84
84
84
84
78
84
ENDCHAR

STARTCHAR yen
ENCODING 165
SWIDTH 740 0
DWIDTH 10 0
BBX 9 11 0 0
BITMAP
E380
4100
2200
2200
1400
7700
0800
7F00
0800
0800
1C00
ENDCHAR

STARTCHAR brokenbar
ENCODING 166
SWIDTH 660 0
DWIDTH 9 0
BBX 1 11 4 0
BITMAP
80
80
80
80
00
00
80
80
80
80
80
ENDCHAR

STARTCHAR section
ENCODING 167
SWIDTH 440 0
DWIDTH 6 0
BBX 5 13 0 -2
BITMAP
70
88
88
40
70
88
88
88
70
08
88
88
70
ENDCHAR

STARTCHAR dieresis
ENCODING 168
SWIDTH 340 0
DWIDTH 5 0
BBX 3 2 1 9
BITMAP
A0
A0
ENDCHAR

STARTCHAR copyright
ENCODING 169
SWIDTH 820 0
DWIDTH 12 0
BBX 11 11 0 0
BITMAP
1F00
60C0
4E40
9120
9020
9020
9020
9120
4E40
60C0
1F00
ENDCHAR

STARTCHAR ordfeminine
ENCODING 170
SWIDTH 420 0
DWIDTH 7 0
BBX 6 7 0 4
BITMAP
6C
98
88
98
6C
00
FC
ENDCHAR

STARTCHAR guillemotleft
ENCODING 171
SWIDTH 320 0
DWIDTH 5 0
BBX 4 3 0 3
BITMAP
50
A0
50
ENDCHAR

STARTCHAR logicalnot
ENCODING 172
SWIDTH 660 0
DWIDTH 9 0
BBX 8 4 0 3
BITMAP
FF
01
01
01
ENDCHAR

STARTCHAR hyphen
ENCODING 173
SWIDTH 300 0
DWIDTH 5 0
BBX 4 1 0 4
BITMAP
F0
ENDCHAR

STARTCHAR registered
ENCODING 174
SWIDTH 820 0
DWIDTH 12 0
BBX 11 11 0 0
BITMAP
1F00
60C0
5E40
9120
9120
9E20
9220
9120
5140
60C0
1F00
ENDCHAR

STARTCHAR macron
ENCODING 175
SWIDTH 460 0
DWIDTH 7 0
BBX 5 1 1 10
BITMAP
F8
ENDCHAR

STARTCHAR degree
ENCODING 176
SWIDTH 400 0
DWIDTH 6 0
BBX 4 4 0 7
BITMAP
60
90
90
60
ENDCHAR

STARTCHAR plusminus
ENCODING 177
SWIDTH 660 0
DWIDTH 9 0
BBX 7 7 1 2
BITMAP
10
10
FE
10
10
00
FE
ENDCHAR

STARTCHAR twosuperior
ENCODING 178
SWIDTH 348 0
DWIDTH 5 0
BBX 5 6 0 5
BITMAP
70
88
10
20
40
F8
ENDCHAR

STARTCHAR threesuperior
ENCODING 179
SWIDTH 348 0
DWIDTH 5 0
BBX 5 6 0 5
BITMAP
70
88
30
08
88
70
ENDCHAR

STARTCHAR acute
ENCODING 180
SWIDTH 420 0
DWIDTH 5 0
BBX 3 3 1 9
BITMAP
20
40
80
ENDCHAR

STARTCHAR mu
ENCODING 181
SWIDTH 640 0
DWIDTH 9 0
BBX 8 11 0 -3
BITMAP
C6
42
42
42
42
42
66
7B
40
40
40
ENDCHAR

STARTCHAR paragraph
ENCODING 182
SWIDTH 500 0
DWIDTH 8 0
BBX 7 13 0 -2
BITMAP
7E
F4
F4
F4
74
14
14
14
14
14
14
14
14
ENDCHAR

STARTCHAR periodcentered
ENCODING 183
SWIDTH 300 0
DWIDTH 4 0
BBX 1 2 1 4
BITMAP
80
80
ENDCHAR

STARTCHAR cedilla
ENCODING 184
SWIDTH 320 0
DWIDTH 5 0
BBX 3 4 1 -3
BITMAP
40
C0
20
C0
ENDCHAR

STARTCHAR onesuperior
ENCODING 185
SWIDTH 348 0
DWIDTH 5 0
BBX 3 6 0 5
BITMAP
C0
40
40
40
40
E0
ENDCHAR

STARTCHAR ordmasculine
ENCODING 186
SWIDTH 340 0
DWIDTH 6 0
BBX 5 7 0 4
BITMAP
70
88
88
88
70
00
F8
ENDCHAR

STARTCHAR guillemotright
ENCODING 187
SWIDTH 320 0
DWIDTH 5 0
BBX 4 3 0 3
BITMAP
A0
50
A0
ENDCHAR

STARTCHAR onequarter
ENCODING 188
SWIDTH 870 0
DWIDTH 12 0
BBX 10 11 1 0
BITMAP
C100
4200
4200
4400
4400
E880
0980
1280
1480
27C0
2080
ENDCHAR

STARTCHAR onehalf
ENCODING 189
SWIDTH 870 0
DWIDTH 12 0
BBX 10 11 1 0
BITMAP
C100
4200
4200
4400
4400
EB80
0C40
1080
1100
2200
27C0
ENDCHAR

STARTCHAR threequarters
ENCODING 190
SWIDTH 870 0
DWIDTH 12 0
BBX 11 11 0 0
BITMAP
7080
8900
3100
0A00
8A00
7440
04C0
0940
0A40
13E0
1040
ENDCHAR

STARTCHAR questiondown
ENCODING 191
SWIDTH 520 0
DWIDTH 7 0
BBX 6 11 0 -3
BITMAP
10
10
00
10
10
20
40
80
84
84
78
ENDCHAR

STARTCHAR Agrave
ENCODING 192
SWIDTH 820 0
DWIDTH 12 0
BBX 11 15 0 0
BITMAP
1000
0800
0400
0000
1C00
0400
0A00
0A00
1100
1100
3F80
2080
2080
4040
E0E0
ENDCHAR

STARTCHAR Aacute
ENCODING 193
SWIDTH 820 0
DWIDTH 12 0
BBX 11 15 0 0
BITMAP
0100
0200
0400
0000
1C00
0400
0A00
0A00
1100
1100
3F80
2080
2080
4040
E0E0
ENDCHAR

STARTCHAR Acircumflex
ENCODING 194
SWIDTH 820 0
DWIDTH 12 0
BBX 11 15 0 0
BITMAP
0400
0A00
1100
0000
1C00
0400
0A00
0A00
1100
1100
3F80
2080
2080
4040
E0E0
ENDCHAR

STARTCHAR Atilde
ENCODING 195
SWIDTH 820 0
DWIDTH 12 0
BBX 11 14 0 0
BITMAP
1900
2600
0000
1C00
0400
0A00
0A00
1100
1100
3F80
2080
2080
4040
E0E0
ENDCHAR

STARTCHAR Adieresis
ENCODING 196
SWIDTH 820 0
DWIDTH 12 0
BBX 11 14 0 0
BITMAP
0A00
0A00
0000
1C00
0400
0A00
0A00
1100
1100
3F80
2080
2080
4040
E0E0
ENDCHAR

STARTCHAR Aring
ENCODING 197
SWIDTH 820 0
DWIDTH 12 0
BBX 11 15 0 0
BITMAP
0400
0A00
0400
0000
1C00
0400
0A00
0A00
1100
1100
3F80
2080
2080
4040
E0E0
ENDCHAR

STARTCHAR AE
ENCODING 198
SWIDTH 1000 0
DWIDTH 14 0
BBX 13 11 0 0
BITMAP
0FF8
0508
0508
0900
0900
11F0
1F00
2100
2108
4108
E3F8
ENDCHAR

STARTCHAR Ccedilla
ENCODING 199
SWIDTH 740 0
DWIDTH 11 0
BBX 10 14 0 -3
BITMAP
1F40
60C0
4040
8000
8000
8000
8000
8000
4040
6080
1F00
1800
0400
1800
ENDCHAR

STARTCHAR Egrave
ENCODING 200
SWIDTH 560 0
DWIDTH 8 0
BBX 7 15 0 0
BITMAP
20
10
08
00
FE
42
42
40
40
7C
40
40
42
42
FE
ENDCHAR

STARTCHAR Eacute
ENCODING 201
SWIDTH 560 0
DWIDTH 8 0
BBX 7 15 0 0
BITMAP
04
08
10
00
FE
42
42
40
40
7C
40
40
42
42
FE
ENDCHAR

STARTCHAR Ecircumflex
ENCODING 202
SWIDTH 560 0
DWIDTH 8 0
BBX 7 15 0 0
BITMAP
08
14
22
00
FE
42
42
40
40
7C
40
40
42
42
FE
ENDCHAR

STARTCHAR Edieresis
ENCODING 203
SWIDTH 560 0
DWIDTH 8 0
BBX 7 14 0 0
BITMAP
24
24
00
FE
42
42
40
40
7C
40
40
42
42
FE
ENDCHAR

STARTCHAR Igrave
ENCODING 204
SWIDTH 300 0
DWIDTH 4 0
BBX 3 15 0 0
BITMAP
80
40
20
00
E0
40
40
40
40
40
40
40
40
40
E0
ENDCHAR

STARTCHAR Iacute
ENCODING 205
SWIDTH 300 0
DWIDTH 4 0
BBX 4 15 0 0
BITMAP
10
20
40
00
E0
40
40
40
40
40
40
40
40
40
E0
ENDCHAR

STARTCHAR Icircumflex
ENCODING 206
SWIDTH 300 0
DWIDTH 4 0
BBX 5 15 -1 0
BITMAP
20
50
88
00
70
20
20
20
20
20
20
20
20
20
70
ENDCHAR

STARTCHAR Idieresis
ENCODING 207
SWIDTH 300 0
DWIDTH 4 0
BBX 3 14 0 0
BITMAP
A0
A0
00
E0
40
40
40
40
40
40
40
40
40
E0
ENDCHAR

STARTCHAR Eth
ENCODING 208
SWIDTH 720 0
DWIDTH 11 0
BBX 10 11 0 0
BITMAP
FE00
4180
4080
4040
4040
F040
4040
4040
4080
4180
FE00
ENDCHAR

STARTCHAR Ntilde
ENCODING 209
SWIDTH 800 0
DWIDTH 12 0
BBX 11 14 0 0
BITMAP
0C80
1300
0000
E0E0
6040
5040
4840
4840
4440
4240
4240
4140
40C0
E0C0
ENDCHAR

STARTCHAR Ograve
ENCODING 210
SWIDTH 800 0
DWIDTH 12 0
BBX 11 15 0 0
BITMAP
0800
0400
0200
0000
1F00
60C0
4040
8020
8020
8020
8020
8020
4040
60C0
1F00
ENDCHAR

STARTCHAR Oacute
ENCODING 211
SWIDTH 800 0
DWIDTH 12 0
BBX 11 15 0 0
BITMAP
0100
0200
0400
0000
1F00
60C0
4040
8020
8020
8020
8020
8020
4040
60C0
1F00
ENDCHAR

STARTCHAR Ocircumflex
ENCODING 212
SWIDTH 800 0
DWIDTH 12 0
BBX 11 15 0 0
BITMAP
0400
0A00
1100
0000
1F00
60C0
4040
8020
8020
8020
8020
8020
4040
60C0
1F00
ENDCHAR

STARTCHAR Otilde
ENCODING 213
SWIDTH 800 0
DWIDTH 12 0
BBX 11 14 0 0
BITMAP
0C80
1300
0000
1F00
60C0
4040
8020
8020
8020
8020
8020
4040
60C0
1F00
ENDCHAR

STARTCHAR Odieresis
ENCODING 214
SWIDTH 800 0
DWIDTH 12 0
BBX 11 14 0 0
BITMAP
0A00
0A00
0000
1F00
60C0
4040
8020
8020
8020
8020
8020
4040
60C0
1F00
ENDCHAR

STARTCHAR multiply
ENCODING 215
SWIDTH 660 0
DWIDTH 9 0
BBX 7 7 1 2
BITMAP
82
44
28
10
28
44
82
ENDCHAR

STARTCHAR Oslash
ENCODING 216
SWIDTH 800 0
DWIDTH 12 0
BBX 11 11 0 0
BITMAP
1F20
60C0
40C0
8120
8220
8420
8820
9020
6040
60C0
9F00
ENDCHAR

STARTCHAR Ugrave
ENCODING 217
SWIDTH 700 0
DWIDTH 10 0
BBX 9 15 0 0
BITMAP
1000
0800
0400
0000
E380
4100
4100
4100
4100
4100
4100
4100
4100
2200
1C00
ENDCHAR

STARTCHAR Uacute
ENCODING 218
SWIDTH 700 0
DWIDTH 10 0
BBX 9 15 0 0
BITMAP
0200
0400
0800
0000
E380
4100
4100
4100
4100
4100
4100
4100
4100
2200
1C00
ENDCHAR

STARTCHAR Ucircumflex
ENCODING 219
SWIDTH 700 0
DWIDTH 10 0
BBX 9 15 0 0
BITMAP
0800
1400
2200
0000
E380
4100
4100
4100
4100
4100
4100
4100
4100
2200
1C00
ENDCHAR

STARTCHAR Udieresis
ENCODING 220
SWIDTH 700 0
DWIDTH 10 0
BBX 9 14 0 0
BITMAP
1400
1400
0000
E380
4100
4100
4100
4100
4100
4100
4100
4100
2200
1C00
ENDCHAR

STARTCHAR Yacute
ENCODING 221
SWIDTH 680 0
DWIDTH 9 0
BBX 9 15 0 0
BITMAP
0200
0400
0800
0000
E380
4100
2200
2200
1400
1400
0800
0800
0800
0800
1C00
ENDCHAR

STARTCHAR Thorn
ENCODING 222
SWIDTH 580 0
DWIDTH 9 0
BBX 8 11 0 0
BITMAP
E0
40
7C
42
41
41
41
42
7C
40
E0
ENDCHAR

STARTCHAR germandbls
ENCODING 223
SWIDTH 580 0
DWIDTH 8 0
BBX 7 11 0 0
BITMAP
38
44
44
44
58
44
42
42
42
44
D8
ENDCHAR

STARTCHAR agrave
ENCODING 224
SWIDTH 660 0
DWIDTH 9 0
BBX 8 12 0 0
BITMAP
20
10
08
00
3B
46
82
82
82
82
46
3B
ENDCHAR

STARTCHAR aacute
ENCODING 225
SWIDTH 660 0
DWIDTH 9 0
BBX 8 12 0 0
BITMAP
08
10
20
00
3B
46
82
82
82
82
46
3B
ENDCHAR

STARTCHAR acircumflex
ENCODING 226
SWIDTH 660 0
DWIDTH 9 0
BBX 8 12 0 0
BITMAP
10
28
44
00
3B
46
82
82
82
82
46
3B
ENDCHAR

STARTCHAR atilde
ENCODING 227
SWIDTH 660 0
DWIDTH 9 0
BBX 8 11 0 0
BITMAP
32
4C
00
3B
46
82
82
82
82
46
3B
ENDCHAR

STARTCHAR adieresis
ENCODING 228
SWIDTH 660 0
DWIDTH 9 0
BBX 8 11 0 0
BITMAP
28
28
00
3B
46
82
82
82
82
46
3B
ENDCHAR

STARTCHAR aring
ENCODING 229
SWIDTH 660 0
DWIDTH 9 0
BBX 8 12 0 0
BITMAP
10
28
10
00
3B
46
82
82
82
82
46
3B
ENDCHAR

STARTCHAR ae
ENCODING 230
SWIDTH 1060 0
DWIDTH 15 0
BBX 14 8 0 0
BITMAP
3AF0
4708
8204
83FC
8200
8204
4708
3AF0
ENDCHAR

STARTCHAR ccedilla
ENCODING 231
SWIDTH 560 0
DWIDTH 8 0
BBX 7 11 0 -3
BITMAP
3A
46
82
80
80
80
42
3C
30
08
30
ENDCHAR

STARTCHAR egrave
ENCODING 232
SWIDTH 580 0
DWIDTH 9 0
BBX 8 12 0 0
BITMAP
20
10
08
00
3C
42
81
FF
80
81
42
3C
ENDCHAR

STARTCHAR eacute
ENCODING 233
SWIDTH 580 0
DWIDTH 9 0
BBX 8 12 0 0
BITMAP
08
10
20
00
3C
42
81
FF
80
81
42
3C
ENDCHAR

STARTCHAR ecircumflex
ENCODING 234
SWIDTH 580 0
DWIDTH 9 0
BBX 8 12 0 0
BITMAP
10
28
44
00
3C
42
81
FF
80
81
42
3C
ENDCHAR

STARTCHAR edieresis
ENCODING 235
SWIDTH 580 0
DWIDTH 9 0
BBX 8 11 0 0
BITMAP
28
28
00
3C
42
81
FF
80
81
42
3C
ENDCHAR

STARTCHAR igrave
ENCODING 236
SWIDTH 260 0
DWIDTH 4 0
BBX 3 12 0 0
BITMAP
80
40
20
00
C0
40
40
40
40
40
40
E0
ENDCHAR

STARTCHAR iacute
ENCODING 237
SWIDTH 260 0
DWIDTH 4 0
BBX 3 12 0 0
BITMAP
20
40
80
00
C0
40
40
40
40
40
40
E0
ENDCHAR

STARTCHAR icircumflex
ENCODING 238
SWIDTH 260 0
DWIDTH 4 0
BBX 5 12 -1 0
BITMAP
20
50
88
00
60
20
20
20
20
20
20
70
ENDCHAR

STARTCHAR idieresis
ENCODING 239
SWIDTH 260 0
DWIDTH 4 0
BBX 3 11 0 0
BITMAP
A0
A0
00
C0
40
40
40
40
40
40
E0
ENDCHAR

STARTCHAR eth
ENCODING 240
SWIDTH 580 0
DWIDTH 9 0
BBX 8 12 0 0
BITMAP
66
38
C8
04
3E
42
81
81
81
81
42
3C
ENDCHAR

STARTCHAR ntilde
ENCODING 241
SWIDTH 660 0
DWIDTH 10 0
BBX 9 11 0 0
BITMAP
3200
4C00
0000
DE00
6300
4100
4100
4100
4100
4100
E380
ENDCHAR

STARTCHAR ograve
ENCODING 242
SWIDTH 580 0
DWIDTH 9 0
BBX 8 12 0 0
BITMAP
20
10
08
00
3C
42
81
81
81
81
42
3C
ENDCHAR

STARTCHAR oacute
ENCODING 243
SWIDTH 580 0
DWIDTH 9 0
BBX 8 12 0 0
BITMAP
08
10
20
00
3C
42
81
81
81
81
42
3C
ENDCHAR

STARTCHAR ocircumflex
ENCODING 244
SWIDTH 580 0
DWIDTH 9 0
BBX 8 12 0 0
BITMAP
10
28
44
00
3C
42
81
81
81
81
42
3C
ENDCHAR

STARTCHAR otilde
ENCODING 245
SWIDTH 580 0
DWIDTH 9 0
BBX 8 11 0 0
BITMAP
32
4C
00
3C
42
81
81
81
81
42
3C
ENDCHAR

STARTCHAR odieresis
ENCODING 246
SWIDTH 580 0
DWIDTH 9 0
BBX 8 11 0 0
BITMAP
28
28
00
3C
42
81
81
81
81
42
3C
ENDCHAR

STARTCHAR divide
ENCODING 247
SWIDTH 660 0
DWIDTH 9 0
BBX 7 7 1 2
BITMAP
10
10
00
FE
00
10
10
ENDCHAR

STARTCHAR oslash
ENCODING 248
SWIDTH 580 0
DWIDTH 9 0
BBX 8 8 0 0
BITMAP
3D
42
85
89
91
A1
42
BC
ENDCHAR

STARTCHAR ugrave
ENCODING 249
SWIDTH 640 0
DWIDTH 9 0
BBX 8 12 0 0
BITMAP
20
10
08
00
C6
42
42
42
42
42
66
3B
ENDCHAR

STARTCHAR uacute
ENCODING 250
SWIDTH 640 0
DWIDTH 9 0
BBX 8 12 0 0
BITMAP
08
10
20
00
C6
42
42
42
42
42
66
3B
ENDCHAR

STARTCHAR ucircumflex
ENCODING 251
SWIDTH 640 0
DWIDTH 9 0
BBX 8 12 0 0
BITMAP
10
28
44
00
C6
42
42
42
42
42
66
3B
ENDCHAR

STARTCHAR udieresis
ENCODING 252
SWIDTH 640 0
DWIDTH 9 0
BBX 8 11 0 0
BITMAP
28
28
00
C6
42
42
42
42
42
66
3B
ENDCHAR

STARTCHAR yacute
ENCODING 253
SWIDTH 640 0
DWIDTH 8 0
BBX 9 15 -1 -3
BITMAP
0200
0400
0800
0000
E380
4100
2200
2200
1400
1400
0800
0800
1000
1000
3800
ENDCHAR

STARTCHAR thorn
ENCODING 254
SWIDTH 660 0
DWIDTH 9 0
BBX 8 14 0 -3
BITMAP
C0
40
40
5C
62
41
41
41
41
62
5C
40
40
E0
ENDCHAR

STARTCHAR ydieresis
ENCODING 255
SWIDTH 640 0
DWIDTH 8 0
BBX 9 14 -1 -3
BITMAP
1400
1400
0000
E380
4100
2200
2200
1400
1400
0800
0800
1000
1000
3800
ENDCHAR
ENDFONT
